PathFileType	4	(X/Y/Z)	C:\Users\Caesar\Desktop\毕业设计\1-评估老年人缺少的力\Data\s2\T_01_fixed.trc	Maker trajectories (.TRC) by Lee-Son ToolBox																																																																											
DataRate	CameraRate	NumFrames	NumMarkers	Units	OrigDataRate	OrigDataStartFrame	OrigNumFrames																																																																								
100	100	9	26	mm	100	626	1000																																																																								
Frame#	Time	HEAD			C7			T10			STERN			LSHO			LELB			RSHO			RELB			LASI			RASI			LPSI			RPSI			LHIP			LTHI			LKNE			LTIB			LANK			LHEE			LTOE			RHIP			RTHI			RKNE			RTIB			RANK			RHEE			RTOE		
		X1	Y1	Z1	X2	Y2	Z2	X3	Y3	Z3	X4	Y4	Z4	X5	Y5	Z5	X6	Y6	Z6	X7	Y7	Z7	X8	Y8	Z8	X9	Y9	Z9	X10	Y10	Z10	X11	Y11	Z11	X12	Y12	Z12	X13	Y13	Z13	X14	Y14	Z14	X15	Y15	Z15	X16	Y16	Z16	X17	Y17	Z17	X18	Y18	Z18	X19	Y19	Z19	X20	Y20	Z20	X21	Y21	Z21	X22	Y22	Z22	X23	Y23	Z23	X24	Y24	Z24	X25	Y25	Z25	X26	Y26	Z26
																																																																															
626	6.25	1073.08	1663.21	1580.33	860.164	1523.66	1552.56	775.767	1356.07	1580.87	1004.88	1370.53	1555.09	891.043	1485.97	1405.95	965.455	1157.54	1288.2	930.76	1494.83	1732.73	953.644	1134.77	1808.37	950.255	1076.3	1441.65	947.372	1050.94	1692.72	777.768	1106.58	1520.35	789.386	1090.25	1633.92	884.835	993.363	1390.55	1032.6	767.982	1436.83	1021.63	608.379	1441.91	1036.29	415.178	1462.95	995.07	260.687	1480.36	947.889	230.213	1494.43	1174.57	229.869	1523.68	901.582	966.881	1723.63	939.374	808.841	1704.79	887.407	602.816	1677.96	822.574	524.881	1682.11	568.178	398.047	1659.46	516.792	420.871	1643.09	639.395	236.744	1602.71
627	6.26	1072.76	1666.62	1579.68	859.265	1527.33	1553.09	775.01	1359.65	1579.88	1004.14	1374.31	1555.62	891.634	1490.45	1406.26	965.656	1162.73	1287.34	929.061	1497.63	1733.35	953.46	1138.09	1808.56	949.608	1079.61	1440.37	946.822	1054.66	1690.99	777.207	1110.23	1519.14	788.724	1093.78	1632.72	882.854	996.402	1389.48	1025.41	767.03	1434.63	1010.49	608.259	1441.06	1023.01	414.965	1462.3	980.93	260.839	1480.46	933.747	230.234	1494.45	1159.98	230.515	1523.95	901.788	970.691	1722.35	945.817	813.83	1704.73	900.277	606.661	1678.87	835.617	529.275	1682.87	579.514	406.656	1660.79	528.518	430.477	1644.11	648.298	241.493	1606.11
628	6.27	1072.34	1670.2	1579.32	858.354	1531.16	1553.68	774.2	1363.39	1578.83	1003.34	1378.3	1556.22	892.194	1495.21	1406.66	965.917	1168.24	1286.61	927.116	1500.51	1734.09	953.292	1141.55	1808.75	948.599	1083.04	1438.95	946.199	1058.79	1689.31	776.481	1114.14	1518.04	788.003	1097.68	1631.66	880.395	999.492	1388.54	1017.42	766.133	1432.7	998.361	608.216	1440.34	1009.16	414.896	1461.68	966.763	261.002	1480.58	919.631	230.273	1494.51	1145.39	231.239	1524.28	902.006	974.964	1721.19	952.204	819.592	1704.64	912.931	611.383	1679.74	848.832	534.15	1683.61	592.051	413.732	1662.01	541.241	437.763	1645	660.34	246.154	1609.57
629	6.28	1071.81	1673.89	1579.24	857.447	1535.1	1554.3	773.367	1367.21	1577.71	1002.52	1382.45	1556.86	892.74	1500.16	1407.15	966.248	1173.97	1286.03	924.972	1503.44	1734.9	953.143	1145.1	1808.91	947.254	1086.56	1437.43	945.515	1063.22	1687.74	775.617	1118.21	1517.08	787.248	1101.84	1630.73	877.535	1002.6	1387.76	1008.78	765.392	1431.09	985.473	608.285	1439.72	994.87	414.974	1461.09	952.565	261.173	1480.69	905.523	230.335	1494.57	1130.79	231.953	1524.63	902.258	979.617	1720.17	958.482	826.032	1704.48	925.293	616.877	1680.56	862.142	539.395	1684.36	605.693	419.077	1663.18	554.849	442.615	1645.87	675.288	250.442	1613
630	6.29	1071.21	1677.6	1579.41	856.555	1539.03	1554.95	772.537	1371.05	1576.54	1001.71	1386.67	1557.54	893.293	1505.2	1407.71	966.656	1179.83	1285.61	922.683	1506.35	1735.74	953.018	1148.66	1809	945.613	1090.11	1435.83	944.777	1067.87	1686.3	774.639	1122.38	1516.26	786.477	1106.19	1629.96	874.357	1005.67	1387.13	999.573	764.842	1429.83	972.01	608.476	1439.2	980.262	415.19	1460.52	938.326	261.348	1480.8	891.409	230.417	1494.62	1116.21	232.599	1524.95	902.56	984.547	1719.29	964.589	833.026	1704.23	937.306	623.003	1681.28	875.495	544.877	1685.09	620.362	422.566	1664.31	569.272	445.014	1646.79	692.851	254.112	1616.3
631	6.3	1070.53	1681.24	1579.8	855.684	1542.87	1555.6	771.728	1374.8	1575.32	1000.95	1390.88	1558.22	893.871	1510.24	1408.35	967.144	1185.69	1285.32	920.308	1509.2	1736.58	952.912	1152.17	1809.01	943.729	1093.6	1434.21	943.998	1072.6	1685	773.571	1126.52	1515.59	785.7	1110.61	1629.32	870.949	1008.65	1386.65	989.918	764.462	1428.87	958.126	608.778	1438.75	965.425	415.521	1459.97	924.032	261.518	1480.87	877.271	230.513	1494.67	1101.65	233.147	1525.21	902.914	989.635	1718.55	970.46	840.42	1703.88	948.925	629.594	1681.89	888.851	550.452	1685.81	636	424.146	1665.46	584.476	445.019	1647.81	712.711	256.983	1619.41
632	6.31	1069.79	1684.73	1580.39	854.834	1546.5	1556.25	770.956	1378.39	1574.06	1000.27	1394.98	1558.92	894.489	1515.15	1409.07	967.713	1191.46	1285.14	917.906	1511.9	1737.38	952.821	1155.55	1808.92	941.667	1096.93	1432.61	943.187	1077.28	1683.82	772.436	1130.54	1515.05	784.919	1114.97	1628.81	867.393	1011.48	1386.31	979.914	764.186	1428.16	943.948	609.168	1438.35	950.429	415.933	1459.44	909.671	261.677	1480.93	863.093	230.616	1494.71	1087.12	233.58	1525.41	903.312	994.752	1717.94	976.027	848.042	1703.42	960.111	636.469	1682.35	902.172	555.973	1686.48	652.561	423.839	1666.64	600.457	442.747	1648.97	734.558	258.955	1622.31
633	6.32	1068.99	1687.98	1581.13	854.007	1549.83	1556.88	770.231	1381.74	1572.79	999.657	1398.86	1559.61	895.155	1519.83	1409.86	968.359	1197.02	1285.02	915.529	1514.41	1738.12	952.742	1158.72	1808.74	939.494	1099.98	1431.08	942.353	1081.76	1682.75	771.251	1134.33	1514.63	784.13	1119.15	1628.41	863.762	1014.07	1386.09	969.662	763.927	1427.6	929.581	609.613	1438	935.329	416.389	1458.93	895.232	261.816	1480.96	848.852	230.72	1494.75	1072.62	233.893	1525.52	903.737	999.762	1717.46	981.232	855.715	1702.86	970.829	643.442	1682.66	915.422	561.3	1687.1	670.011	421.722	1667.86	617.231	438.354	1650.27	758.111	260	1624.97
634	6.33	1068.15	1690.9	1581.98	853.202	1552.78	1557.5	769.556	1384.75	1571.51	999.132	1402.42	1560.29	895.867	1524.16	1410.73	969.077	1202.27	1284.89	913.226	1516.63	1738.77	952.669	1161.58	1808.46	937.277	1102.65	1429.66	941.498	1085.9	1681.76	770.031	1137.79	1514.3	783.324	1123.03	1628.1	860.116	1016.38	1385.98	959.267	763.598	1427.13	915.127	610.076	1437.67	920.178	416.848	1458.43	880.711	261.927	1480.99	834.528	230.819	1494.81	1058.15	234.084	1525.54	904.161	1004.53	1717.1	986.026	863.261	1702.22	981.045	650.335	1682.8	928.557	566.311	1687.63	688.326	417.924	1669.13	634.832	432.026	1651.69	783.131	260.156	1627.41
